# xmcd
#
# Track frame offsets:
#	150
#	17069
#	28645
#	42114
#	57059
#	77756
#	88940
#	107815
#	126708
#
# Disc length: 1873 seconds
#
# Revision: 1
# Processed by: cddbd v1.5.2PL0 Copyright (c) Steve Scherf et al.
# Submitted via: audiograbber 1.83.01
#
DISCID=72074f09
DTITLE=Foggy - Blues For A Day
DYEAR=2003
DGENRE=Blues
TTITLE0=Woke Up This Morning
TTITLE1=Whiskey Ain't Cheap
TTITLE2=Blues For A Day
TTITLE3=Big Mama's Lazy Blues
TTITLE4=My Baby Left Me
TTITLE5=Sunglass Boogie
TTITLE6=Cool Dress
TTITLE7=Blue House
TTITLE8=Bifter Break Blues
EXTD=All songs written by Andreas Vockrodt 2003
EXTT0=
EXTT1=
EXTT2=
EXTT3=
EXTT4=
EXTT5=
EXTT6=
EXTT7=
EXTT8=
PLAYORDER=
